<?xml version="1.0" encoding="UTF-8" standalone="no"?>
<svg width="318px" height="300px" viewBox="0 0 318 300" version="1.1" xmlns="http://www.w3.org/2000/svg" xmlns:xlink="http://www.w3.org/1999/xlink">
    <!-- Generator: Sketch 3.8.1 (29687) - http://www.bohemiancoding.com/sketch -->
    <title>Artboard 1</title>
    <desc>Created with Sketch.</desc>
    <defs>
        <rect id="path-1" x="0" y="0" width="189" height="13"></rect>
        <mask id="mask-2" maskContentUnits="userSpaceOnUse" maskUnits="objectBoundingBox" x="0" y="0" width="189" height="13" fill="white">
            <use xlink:href="#path-1"></use>
        </mask>
        <rect id="path-3" x="0" y="12" width="189" height="184"></rect>
        <mask id="mask-4" maskContentUnits="userSpaceOnUse" maskUnits="objectBoundingBox" x="0" y="0" width="189" height="184" fill="white">
            <use xlink:href="#path-3"></use>
        </mask>
        <rect id="path-5" x="0" y="0" width="189" height="13"></rect>
        <mask id="mask-6" maskContentUnits="userSpaceOnUse" maskUnits="objectBoundingBox" x="0" y="0" width="189" height="13" fill="white">
            <use xlink:href="#path-5"></use>
        </mask>
        <rect id="path-7" x="0" y="12" width="189" height="184"></rect>
        <mask id="mask-8" maskContentUnits="userSpaceOnUse" maskUnits="objectBoundingBox" x="0" y="0" width="189" height="184" fill="white">
            <use xlink:href="#path-7"></use>
        </mask>
    </defs>
    <g id="Page-1" stroke="none" stroke-width="1" fill="none" fill-rule="evenodd">
        <g id="Artboard-1">
            <g id="Code" transform="translate(5.000000, 1.000000)">
                <use id="Rectangle-4" stroke="#E6E8E9" mask="url(#mask-2)" stroke-width="2" fill="#E6E8E9" xlink:href="#path-1"></use>
                <use id="Rectangle-3" stroke="#282C35" mask="url(#mask-4)" stroke-width="2" fill="#282C35" xlink:href="#path-3"></use>
                <path d="M14.5,23.5 L55.5,23.5" id="Line" stroke="#ED5565" stroke-width="7"></path>
                <path d="M35.5,35.5 L62.5,35.5" id="Line-Copy-2" stroke="#4FC1E9" stroke-width="7"></path>
                <path d="M35.5,48.5 L79.5,48.5" id="Line-Copy-4" stroke="#37BC9B" stroke-width="7"></path>
                <path d="M67.5,35.5 L101.514702,35.5" id="Line-Copy-3" stroke="#F16D65" stroke-width="7"></path>
                <path d="M90.5,118.5 L124.514702,118.5" id="Line-Copy-18" stroke="#F16D65" stroke-width="7"></path>
                <path d="M41.5,159.5 L75.5147018,159.5" id="Line-Copy-14" stroke="#F16D65" stroke-width="7"></path>
                <path d="M14.5,62.5 L55.5,62.5" id="Line-Copy" stroke="#8067B7" stroke-width="7"></path>
                <path d="M43.5,76.5 L70.5,76.5" id="Line-Copy-6" stroke="#ED5565" stroke-width="7"></path>
                <path d="M43.5,90.5 L107.5,90.5" id="Line-Copy-8" stroke="#8067B7" stroke-width="7"></path>
                <path d="M56.5,176.5 L112.5,176.5" id="Line-Copy-16" stroke="#8067B7" stroke-width="7"></path>
                <path d="M113.5,90.5 L141.517851,90.5" id="Line-Copy-9" stroke="#37BC9B" stroke-width="7"></path>
                <path d="M75.5,76.5 L142.508472,76.5" id="Line-Copy-7" stroke="#4FC1E9" stroke-width="7"></path>
                <path d="M81.5,159.5 L157.5,159.5" id="Line-Copy-15" stroke="#4FC1E9" stroke-width="7"></path>
                <path d="M14.5,104.5 L55.5,104.5" id="Line-Copy-5" stroke="#4FC1E9" stroke-width="7"></path>
                <path d="M41.5,118.5 L87.5,118.5" id="Line-Copy-10" stroke="#37BC9B" stroke-width="7"></path>
                <path d="M116.5,176.5 L157.5,176.5" id="Line-Copy-17" stroke="#37BC9B" stroke-width="7"></path>
                <path d="M14.5,145.5 L55.5,145.5" id="Line-Copy-13" stroke="#37BC9B" stroke-width="7"></path>
                <path d="M62.5,132.5 L80.5,132.5" id="Line-Copy-11" stroke="#ED5565" stroke-width="7"></path>
                <path d="M84.5,132.5 L143.5,132.5" id="Line-Copy-12" stroke="#8067B7" stroke-width="7"></path>
                <circle id="Oval-1" fill="#ED5565" cx="12.5" cy="6.5" r="2.5"></circle>
                <circle id="Oval-1-Copy" fill="#F8E81C" cx="20.5" cy="6.5" r="2.5"></circle>
                <circle id="Oval-1-Copy-2" fill="#7ED321" cx="28.5" cy="6.5" r="2.5"></circle>
            </g>
            <g id="Wireframe" transform="translate(125.000000, 99.000000)">
                <use id="Rectangle-4-Copy" stroke="#E6E8E9" mask="url(#mask-6)" stroke-width="2" fill="#E7E8EA" xlink:href="#path-5"></use>
                <use id="Rectangle-3-Copy" stroke="#F5F6F7" mask="url(#mask-8)" stroke-width="2" fill="#F5F6F7" xlink:href="#path-7"></use>
                <rect id="Rectangle-5" fill="#D8D8D8" x="10" y="23" width="171" height="44"></rect>
                <rect id="Rectangle-16" fill="#979797" x="69" y="31" width="52" height="10"></rect>
                <rect id="Rectangle-16-Copy" fill="#565555" x="69" y="45" width="52" height="3"></rect>
                <rect id="Rectangle-16-Copy-2" fill="#565555" x="69" y="50" width="52" height="3"></rect>
                <rect id="Rectangle-16-Copy-3" fill="#565555" x="69" y="55" width="23" height="3"></rect>
                <rect id="Rectangle-5-Copy" fill="#37BC9B" x="10" y="75" width="60" height="13"></rect>
                <rect id="Rectangle-5-Copy-6" fill="#D8D8D8" x="10" y="93" width="60" height="13"></rect>
                <rect id="Rectangle-5-Copy-7" fill="#D8D8D8" x="10" y="111" width="60" height="13"></rect>
                <rect id="Rectangle-5-Copy-8" fill="#D8D8D8" x="10" y="129" width="60" height="13"></rect>
                <rect id="Rectangle-5-Copy-9" fill="#D8D8D8" x="10" y="147" width="60" height="13"></rect>
                <rect id="Rectangle-5-Copy-10" fill="#D8D8D8" x="10" y="164" width="60" height="13"></rect>
                <rect id="Rectangle-5-Copy-2" fill="#D8D8D8" x="79" y="75" width="47" height="47"></rect>
                <rect id="Rectangle-5-Copy-4" fill="#D8D8D8" x="79" y="130" width="47" height="47"></rect>
                <rect id="Rectangle-5-Copy-5" fill="#ED5565" x="134" y="130" width="47" height="47"></rect>
                <rect id="Rectangle-5-Copy-3" fill="#D8D8D8" x="135" y="75" width="46" height="46"></rect>
                <circle id="Oval-1-Copy-3" fill="#ED5565" cx="12.5" cy="6.5" r="2.5"></circle>
                <circle id="Oval-1-Copy-4" fill="#F8E81C" cx="20.5" cy="6.5" r="2.5"></circle>
                <circle id="Oval-1-Copy-5" fill="#7ED321" cx="28.5" cy="6.5" r="2.5"></circle>
            </g>
        </g>
    </g>
</svg>